<svg width="25" height="25" viewBox="0 0 25 25" fill="none" xmlns="http://www.w3.org/2000/svg">
<path d="M17.1875 8.98961C16.7604 8.98961 16.4062 8.63544 16.4062 8.20836V6.77086C16.4062 5.67711 15.9375 4.61461 15.125 3.87503C14.3021 3.12503 13.2396 2.78128 12.1146 2.88544C10.2396 3.06253 8.59375 4.97919 8.59375 6.97919V7.98961C8.59375 8.41669 8.23958 8.77086 7.8125 8.77086C7.38542 8.77086 7.03125 8.41669 7.03125 7.98961V6.96878C7.03125 4.16669 9.29167 1.58336 11.9687 1.32294C13.5312 1.17711 15.0312 1.66669 16.1771 2.71878C17.3125 3.75003 17.9688 5.22919 17.9688 6.77086V8.20836C17.9688 8.63544 17.6146 8.98961 17.1875 8.98961Z" fill="#292D32"/>
<path d="M15.6248 23.698H9.37481C4.56231 23.698 3.66648 21.4584 3.43731 19.2813L2.65606 13.0417C2.54148 11.9167 2.49981 10.3021 3.59356 9.09379C4.53106 8.05212 6.08314 7.55212 8.33314 7.55212H16.6665C18.9269 7.55212 20.479 8.06254 21.4061 9.09379C22.4894 10.3021 22.4581 11.9167 22.3436 13.0209L21.5623 19.2813C21.3331 21.4584 20.4373 23.698 15.6248 23.698ZM8.33314 9.11462C6.57273 9.11462 5.36439 9.45837 4.74981 10.1459C4.23939 10.7084 4.07273 11.573 4.20814 12.8646L4.98939 19.1042C5.16648 20.7709 5.62481 22.1459 9.37481 22.1459H15.6248C19.3748 22.1459 19.8331 20.7813 20.0102 19.125L20.7915 12.8646C20.9269 11.5938 20.7602 10.7292 20.2498 10.1563C19.6352 9.45837 18.4269 9.11462 16.6665 9.11462H8.33314Z" fill="#292D32"/>
<path d="M16.0623 13.698C15.479 13.698 15.0103 13.2292 15.0103 12.6563C15.0103 12.0834 15.479 11.6146 16.0519 11.6146C16.6248 11.6146 17.0936 12.0834 17.0936 12.6563C17.0936 13.2292 16.6353 13.698 16.0623 13.698Z" fill="#292D32"/>
<path d="M8.77083 13.698C8.1875 13.698 7.71875 13.2292 7.71875 12.6563C7.71875 12.0834 8.1875 11.6146 8.76042 11.6146C9.33333 11.6146 9.80208 12.0834 9.80208 12.6563C9.80208 13.2292 9.34375 13.698 8.77083 13.698Z" fill="#292D32"/>
</svg>
