<svg width="24" height="24" viewBox="0 0 24 24" fill="none" xmlns="http://www.w3.org/2000/svg">
<path d="M3.25624 8.95404C3.47141 8.22243 3.84274 7.25425 4.46455 6.29325C5.6824 4.41111 7.88627 2.5 12 2.5C16.1137 2.5 18.3176 4.41111 19.5354 6.29325C20.1573 7.25425 20.5286 8.22243 20.7438 8.95404L20.7572 9H19.4185C18.2317 6.06817 15.3574 4 12 4C8.64262 4 5.76829 6.06817 4.58152 9H3.24283L3.25624 8.95404ZM22.973 9.74005C22.9617 9.66677 22.9449 9.56724 22.9213 9.445C22.8712 9.18565 22.7898 8.82243 22.6625 8.38971C22.4089 7.52757 21.9677 6.37075 21.2146 5.20675C19.6824 2.83889 16.8863 0.5 12 0.5C7.11367 0.5 4.31755 2.83889 2.78541 5.20675C2.03224 6.37075 1.59107 7.52757 1.3375 8.38971C1.21023 8.82243 1.12884 9.18566 1.07871 9.445C1.05509 9.56724 1.03834 9.66677 1.02697 9.74005C0.397588 10.29 0 11.0986 0 12V14C0 15.6569 1.34315 17 3 17H4.25204C5.14012 20.4505 8.27232 23 12 23C15.7277 23 18.8599 20.4505 19.748 17H21C22.6569 17 24 15.6569 24 14V12C24 11.0986 23.6024 10.29 22.973 9.74005ZM20.0001 15L20 14.9875V12C20 11.6613 19.979 11.3276 19.9381 11H21C21.5523 11 22 11.4477 22 12V14C22 14.5523 21.5523 15 21 15H20.0001ZM18 12V14.4648C17.1383 14.993 15.5853 15.7249 13.755 16.04C13.4152 15.4202 12.7567 15 12 15C10.8954 15 10 15.8954 10 17C10 18.1046 10.8954 19 12 19C12.709 19 13.3319 18.631 13.6871 18.0746C15.2292 17.8589 16.6158 17.3808 17.6988 16.8824C16.9092 19.274 14.6562 21 12 21C8.68629 21 6 18.3137 6 15V12C6 11.3425 6.10577 10.7096 6.30123 10.1176C7.09078 7.72598 9.34383 6 12 6C14.656 6 16.9089 7.72571 17.6986 10.117C17.8942 10.7092 18 11.3422 18 12ZM3 11H4.06189C4.02104 11.3276 4 11.6613 4 12V15H3C2.44772 15 2 14.5523 2 14V12C2 11.4477 2.44772 11 3 11Z" fill="#282828"/>
</svg>
