<svg width="24" height="24" viewBox="0 0 24 24" fill="none" xmlns="http://www.w3.org/2000/svg">
<path d="M11.4265 3.62205C11.7709 3.38103 12.2291 3.38103 12.5735 3.62205L20.0258 8.83865L12.4061 12.2251C12.1476 12.3401 11.8524 12.3401 11.5939 12.2251L3.97425 8.83865L11.4265 3.62205ZM3 10.5943L10.7816 14.0528C11.5573 14.3975 12.4427 14.3975 13.2184 14.0528L21 10.5943V20C21 20.5523 20.5523 21 20 21H4C3.44772 21 3 20.5523 3 20V10.5943ZM13.7204 1.98359C12.6874 1.26052 11.3126 1.26052 10.2796 1.98359L2.27961 7.58359C1.47763 8.14497 1 9.06234 1 10.0413V20C1 21.6568 2.34315 23 4 23H20C21.6569 23 23 21.6568 23 20V10.0413C23 9.06234 22.5224 8.14497 21.7204 7.58359L13.7204 1.98359Z" fill="#282828"/>
</svg>
