<svg width="25" height="25" viewBox="0 0 25 25" fill="none" xmlns="http://www.w3.org/2000/svg">
<path d="M18.4795 23.6976H6.52116C3.92741 23.6976 1.82324 21.5935 1.82324 18.9997V11.9893C1.82324 9.39556 3.92741 7.29138 6.52116 7.29138H18.4795C21.0732 7.29138 23.1774 9.39556 23.1774 11.9893V13.4893C23.1774 13.9164 22.8232 14.2706 22.3962 14.2706H20.292C19.9274 14.2706 19.5941 14.406 19.3545 14.656L19.3441 14.6664C19.0524 14.9476 18.917 15.333 18.9482 15.7289C19.0107 16.4164 19.667 16.9684 20.417 16.9684H22.3962C22.8232 16.9684 23.1774 17.3226 23.1774 17.7497V18.9893C23.1774 21.5934 21.0732 23.6976 18.4795 23.6976ZM6.52116 8.85388C4.79199 8.85388 3.38574 10.2601 3.38574 11.9893V18.9997C3.38574 20.7289 4.79199 22.1351 6.52116 22.1351H18.4795C20.2087 22.1351 21.6149 20.7289 21.6149 18.9997V18.5414H20.417C18.8441 18.5414 17.5107 17.3747 17.3857 15.8747C17.3024 15.0205 17.6149 14.1768 18.2399 13.5622C18.7816 13.0102 19.5107 12.7081 20.292 12.7081H21.6149V11.9893C21.6149 10.2601 20.2087 8.85388 18.4795 8.85388H6.52116Z" fill="#292D32"/>
<path d="M2.60449 13.708C2.17741 13.708 1.82324 13.3538 1.82324 12.9268V8.1664C1.82324 6.61432 2.80241 5.20801 4.25033 4.65593L12.5212 1.53093C13.3753 1.20801 14.3232 1.32265 15.0628 1.84348C15.8128 2.36431 16.2503 3.20806 16.2503 4.11431V8.07263C16.2503 8.49971 15.8962 8.85388 15.4691 8.85388C15.042 8.85388 14.6878 8.49971 14.6878 8.07263V4.11431C14.6878 3.71847 14.5003 3.35388 14.167 3.12471C13.8337 2.89554 13.4378 2.84346 13.0628 2.98929L4.79199 6.11429C3.94824 6.4372 3.37533 7.26015 3.37533 8.1664V12.9268C3.38574 13.3643 3.03158 13.708 2.60449 13.708Z" fill="#292D32"/>
<path d="M20.4176 18.5416C18.8446 18.5416 17.5113 17.3749 17.3863 15.8749C17.303 15.0103 17.6155 14.1666 18.2405 13.552C18.7717 13.0103 19.5009 12.7083 20.2821 12.7083H22.4488C23.4801 12.7395 24.2717 13.552 24.2717 14.552V16.6979C24.2717 17.6979 23.4801 18.5103 22.4801 18.5416H20.4176ZM22.428 14.2708H20.2926C19.928 14.2708 19.5946 14.4062 19.3551 14.6562C19.053 14.9478 18.9071 15.3436 18.9488 15.7395C19.0113 16.427 19.6676 16.9791 20.4176 16.9791H22.4592C22.5946 16.9791 22.7196 16.8541 22.7196 16.6979V14.552C22.7196 14.3957 22.5946 14.2812 22.428 14.2708Z" fill="#292D32"/>
<path d="M14.5837 13.2811H7.29199C6.86491 13.2811 6.51074 12.927 6.51074 12.4999C6.51074 12.0728 6.86491 11.7186 7.29199 11.7186H14.5837C15.0107 11.7186 15.3649 12.0728 15.3649 12.4999C15.3649 12.927 15.0107 13.2811 14.5837 13.2811Z" fill="#292D32"/>
</svg>
