<svg width="25" height="25" viewBox="0 0 25 25" fill="none" xmlns="http://www.w3.org/2000/svg">
<path d="M12.5 14.7606C10.2812 14.7606 8.46875 12.9585 8.46875 10.7293C8.46875 8.50016 10.2812 6.7085 12.5 6.7085C14.7188 6.7085 16.5312 8.51058 16.5312 10.7397C16.5312 12.9689 14.7188 14.7606 12.5 14.7606ZM12.5 8.271C11.1458 8.271 10.0313 9.37516 10.0313 10.7397C10.0313 12.1043 11.1354 13.2085 12.5 13.2085C13.8646 13.2085 14.9688 12.1043 14.9688 10.7397C14.9688 9.37516 13.8542 8.271 12.5 8.271Z" fill="white"/>
<path d="M12.4998 23.7085C10.9581 23.7085 9.40601 23.1252 8.19767 21.9689C5.12476 19.0106 1.72892 14.2918 3.01017 8.67725C4.16642 3.5835 8.61434 1.30225 12.4998 1.30225C12.4998 1.30225 12.4998 1.30225 12.5102 1.30225C16.3956 1.30225 20.8435 3.5835 21.9998 8.68766C23.2706 14.3022 19.8748 19.0106 16.8018 21.9689C15.5935 23.1252 14.0414 23.7085 12.4998 23.7085ZM12.4998 2.86475C9.46851 2.86475 5.57267 4.47933 4.54142 9.021C3.41642 13.9272 6.49976 18.1564 9.29142 20.8335C11.0935 22.5731 13.9164 22.5731 15.7185 20.8335C18.4998 18.1564 21.5831 13.9272 20.4789 9.021C19.4373 4.47933 15.531 2.86475 12.4998 2.86475Z" fill="white"/>
</svg>
