<svg width="25" height="25" viewBox="0 0 25 25" fill="none" xmlns="http://www.w3.org/2000/svg">
<path d="M12.4998 23.7083C11.3644 23.7083 10.2394 23.375 9.354 22.7187L4.87484 19.375C3.68734 18.4896 2.76025 16.6354 2.76025 15.1667V7.41667C2.76025 5.8125 3.93734 4.10417 5.44775 3.54167L10.6457 1.59375C11.6769 1.20833 13.3019 1.20833 14.3332 1.59375L19.5311 3.54167C21.0415 4.10417 22.2186 5.8125 22.2186 7.41667V15.1563C22.2186 16.6354 21.2915 18.4792 20.104 19.3646L15.6248 22.7083C14.7603 23.375 13.6353 23.7083 12.4998 23.7083ZM11.1978 3.0625L5.99984 5.01042C5.11442 5.34375 4.33317 6.46875 4.33317 7.42708V15.1667C4.33317 16.1563 5.03109 17.5417 5.81234 18.125L10.2915 21.4687C11.4894 22.3646 13.5103 22.3646 14.7186 21.4687L19.1978 18.125C19.9894 17.5312 20.6769 16.1563 20.6769 15.1667V7.41667C20.6769 6.46875 19.8957 5.34375 19.0103 5L13.8123 3.05208C13.104 2.80208 11.8957 2.80208 11.1978 3.0625Z" fill="#292D32"/>
<path d="M11.1042 14.8229C10.9062 14.8229 10.7083 14.75 10.5521 14.5937L8.875 12.9166C8.57292 12.6145 8.57292 12.1145 8.875 11.8125C9.17708 11.5104 9.67708 11.5104 9.97917 11.8125L11.1042 12.9375L15.0312 9.01038C15.3333 8.70829 15.8333 8.70829 16.1354 9.01038C16.4375 9.31246 16.4375 9.81246 16.1354 10.1145L11.6562 14.5937C11.5 14.75 11.3021 14.8229 11.1042 14.8229Z" fill="#292D32"/>
</svg>
