<svg width="25" height="25" viewBox="0 0 25 25" fill="none" xmlns="http://www.w3.org/2000/svg">
<path d="M13.5415 15.3646H12.4999C12.0728 15.3646 11.7186 15.0105 11.7186 14.5834C11.7186 14.1563 12.0728 13.8021 12.4999 13.8021H13.5415C14.2603 13.8021 14.8436 13.2188 14.8436 12.5V2.86462H6.24985C5.02068 2.86462 3.89566 3.53127 3.29149 4.60419C3.08316 4.97919 2.60403 5.11465 2.22903 4.90631C1.85403 4.69798 1.71857 4.21879 1.92691 3.84379C2.80191 2.28129 4.45818 1.30212 6.24985 1.30212H15.6249C16.0519 1.30212 16.4061 1.65629 16.4061 2.08337V12.5C16.4061 14.0834 15.1249 15.3646 13.5415 15.3646Z" fill="#292D32"/>
<path d="M19.7918 21.6146H18.7502C18.3231 21.6146 17.9689 21.2605 17.9689 20.8334C17.9689 20.1146 17.3856 19.5313 16.6668 19.5313C15.9481 19.5313 15.3647 20.1146 15.3647 20.8334C15.3647 21.2605 15.0106 21.6146 14.5835 21.6146H10.4168C9.98975 21.6146 9.63558 21.2605 9.63558 20.8334C9.63558 20.1146 9.05225 19.5313 8.3335 19.5313C7.61475 19.5313 7.03141 20.1146 7.03141 20.8334C7.03141 21.2605 6.67725 21.6146 6.25016 21.6146H5.2085C3.05225 21.6146 1.30225 19.8646 1.30225 17.7084C1.30225 17.2813 1.65641 16.9271 2.0835 16.9271C2.51058 16.9271 2.86475 17.2813 2.86475 17.7084C2.86475 19 3.91683 20.0521 5.2085 20.0521H5.57305C5.9168 18.8542 7.021 17.9688 8.3335 17.9688C9.646 17.9688 10.7502 18.8542 11.0939 20.0521H13.9168C14.2606 18.8542 15.3648 17.9688 16.6773 17.9688C17.9898 17.9688 19.0939 18.8542 19.4376 20.0521H19.7918C21.0835 20.0521 22.1356 19 22.1356 17.7084V15.3646H19.7918C18.7918 15.3646 17.9689 14.5417 17.9689 13.5417V10.4167C17.9689 9.41671 18.7814 8.59379 19.7918 8.59379L18.6772 6.64588C18.4481 6.23963 18.0106 5.98962 17.5419 5.98962H16.4064V12.5C16.4064 14.0834 15.1252 15.3646 13.5418 15.3646H12.5002C12.0731 15.3646 11.7189 15.0105 11.7189 14.5834C11.7189 14.1563 12.0731 13.8021 12.5002 13.8021H13.5418C14.2606 13.8021 14.8439 13.2188 14.8439 12.5V5.20837C14.8439 4.78129 15.1981 4.42712 15.6252 4.42712H17.5419C18.5731 4.42712 19.521 4.97922 20.0314 5.87506L21.8127 8.98963C21.9481 9.22921 21.9481 9.5313 21.8127 9.77088C21.6772 10.0105 21.4168 10.1563 21.1356 10.1563H19.7918C19.646 10.1563 19.5314 10.2709 19.5314 10.4167V13.5417C19.5314 13.6875 19.646 13.8021 19.7918 13.8021H22.9168C23.3439 13.8021 23.6981 14.1563 23.6981 14.5834V17.7084C23.6981 19.8646 21.9481 21.6146 19.7918 21.6146Z" fill="#292D32"/>
<path d="M8.33333 23.6979C6.75 23.6979 5.46875 22.4167 5.46875 20.8333C5.46875 19.25 6.75 17.9688 8.33333 17.9688C9.91667 17.9688 11.1979 19.25 11.1979 20.8333C11.1979 22.4167 9.91667 23.6979 8.33333 23.6979ZM8.33333 19.5312C7.61458 19.5312 7.03125 20.1146 7.03125 20.8333C7.03125 21.5521 7.61458 22.1354 8.33333 22.1354C9.05208 22.1354 9.63542 21.5521 9.63542 20.8333C9.63542 20.1146 9.05208 19.5312 8.33333 19.5312Z" fill="#292D32"/>
<path d="M16.6668 23.6979C15.0835 23.6979 13.8022 22.4167 13.8022 20.8333C13.8022 19.25 15.0835 17.9688 16.6668 17.9688C18.2502 17.9688 19.5314 19.25 19.5314 20.8333C19.5314 22.4167 18.2502 23.6979 16.6668 23.6979ZM16.6668 19.5312C15.9481 19.5312 15.3647 20.1146 15.3647 20.8333C15.3647 21.5521 15.9481 22.1354 16.6668 22.1354C17.3856 22.1354 17.9689 21.5521 17.9689 20.8333C17.9689 20.1146 17.3856 19.5312 16.6668 19.5312Z" fill="#292D32"/>
<path d="M22.9167 15.3646H19.7917C18.7917 15.3646 17.9688 14.5417 17.9688 13.5417V10.4167C17.9688 9.41667 18.7917 8.59375 19.7917 8.59375H21.1354C21.4166 8.59375 21.6771 8.73959 21.8125 8.98959L23.5938 12.1146C23.6563 12.2292 23.6979 12.3646 23.6979 12.5V14.5833C23.6979 15.0104 23.3437 15.3646 22.9167 15.3646ZM19.7917 10.1562C19.6458 10.1562 19.5312 10.2708 19.5312 10.4167V13.5417C19.5312 13.6875 19.6458 13.8021 19.7917 13.8021H22.1354V12.7083L20.6771 10.1562H19.7917Z" fill="#292D32"/>
<path d="M8.3335 9.11462H2.0835C1.65641 9.11462 1.30225 8.76046 1.30225 8.33337C1.30225 7.90629 1.65641 7.55212 2.0835 7.55212H8.3335C8.76058 7.55212 9.11475 7.90629 9.11475 8.33337C9.11475 8.76046 8.76058 9.11462 8.3335 9.11462Z" fill="#292D32"/>
<path d="M6.25016 12.2396H2.0835C1.65641 12.2396 1.30225 11.8855 1.30225 11.4584C1.30225 11.0313 1.65641 10.6771 2.0835 10.6771H6.25016C6.67725 10.6771 7.03141 11.0313 7.03141 11.4584C7.03141 11.8855 6.67725 12.2396 6.25016 12.2396Z" fill="#292D32"/>
<path d="M4.16683 15.3646H2.0835C1.65641 15.3646 1.30225 15.0105 1.30225 14.5834C1.30225 14.1563 1.65641 13.8021 2.0835 13.8021H4.16683C4.59391 13.8021 4.94808 14.1563 4.94808 14.5834C4.94808 15.0105 4.59391 15.3646 4.16683 15.3646Z" fill="#292D32"/>
</svg>
