<svg width="24" height="24" viewBox="0 0 24 24" fill="none" xmlns="http://www.w3.org/2000/svg">
<path fill-rule="evenodd" clip-rule="evenodd" d="M1.56538 0.384787C1.30864 -0.00951447 0.769364 -0.120868 0.384248 0.144857C-0.0094271 0.40201 -0.120708 0.942035 0.144594 1.32776L1.77933 3.78786L4.25255 13.0796C4.88585 15.4711 7.05955 17.1426 9.53285 17.1426H20.5387C21.0094 17.1426 21.3945 16.7569 21.3945 16.2855C21.3945 15.814 21.0094 15.4283 20.5387 15.4283H9.53285C8.18923 15.4283 6.97416 14.7082 6.30663 13.5939L20.7698 12.1196C21.8909 12.0082 22.798 11.1853 23.0291 10.0881L23.9448 5.66502C24.2786 4.07067 23.0548 2.57063 21.4288 2.57063H3.02879L1.56538 0.384787ZM5.71595 11.931L3.67922 4.28498H21.4288C21.9765 4.28498 22.3787 4.7821 22.2675 5.31355L21.3517 9.73661C21.2747 10.1052 20.9752 10.3795 20.5987 10.4138L5.71595 11.931Z" fill="white"/>
<path fill-rule="evenodd" clip-rule="evenodd" d="M5.13403 21.4285C5.13403 20.0055 6.28082 18.8569 7.70148 18.8569C9.12213 18.8569 10.2689 20.0055 10.2689 21.4285C10.2689 22.8514 9.12213 24 7.70148 24C6.28082 24 5.13403 22.8514 5.13403 21.4285ZM7.70148 20.5713C7.23078 20.5713 6.84566 20.957 6.84566 21.4285C6.84566 21.8999 7.23078 22.2856 7.70148 22.2856C8.17218 22.2856 8.55729 21.8999 8.55729 21.4285C8.55729 20.957 8.17218 20.5713 7.70148 20.5713Z" fill="white"/>
<path fill-rule="evenodd" clip-rule="evenodd" d="M16.2598 21.4285C16.2598 20.0055 17.4066 18.8569 18.8272 18.8569C20.2479 18.8569 21.3947 20.0055 21.3947 21.4285C21.3947 22.8514 20.2479 24 18.8272 24C17.4066 24 16.2598 22.8514 16.2598 21.4285ZM18.8272 20.5713C18.3565 20.5713 17.9714 20.957 17.9714 21.4285C17.9714 21.8999 18.3565 22.2856 18.8272 22.2856C19.2979 22.2856 19.683 21.8999 19.683 21.4285C19.683 20.957 19.2979 20.5713 18.8272 20.5713Z" fill="white"/>
</svg>
