<svg width="24" height="24" viewBox="0 0 24 24" fill="none" xmlns="http://www.w3.org/2000/svg">
<path fill-rule="evenodd" clip-rule="evenodd" d="M11.9998 0C8.43123 0 5.53833 2.68629 5.53833 6C5.53833 9.31371 8.43123 12 11.9998 12C15.5684 12 18.4613 9.31371 18.4613 6C18.4613 2.68629 15.5684 0 11.9998 0ZM7.38447 6C7.38447 3.63343 9.45122 1.71429 11.9998 1.71429C14.5484 1.71429 16.6152 3.63343 16.6152 6C16.6152 8.36657 14.5484 10.2857 11.9998 10.2857C9.45122 10.2857 7.38447 8.36657 7.38447 6Z" fill="white"/>
<path fill-rule="evenodd" clip-rule="evenodd" d="M4.24996 13.7144C3.03152 13.7144 1.80753 14.2809 1.21677 15.3875C0.733084 16.2927 0.141407 17.6384 0.0121785 19.0304C-0.082897 20.0607 0.378626 21.1218 1.39953 21.7115C3.01582 22.6432 6.34624 24.0001 12 24.0001C17.6538 24.0001 20.9842 22.6432 22.6005 21.7115C23.6214 21.1218 24.0829 20.0607 23.9878 19.0304C23.8586 17.6384 23.2669 16.2927 22.7832 15.3875C22.1925 14.2809 20.9685 13.7144 19.75 13.7144H4.24996ZM2.87089 16.1487C3.10166 15.7158 3.61767 15.4286 4.24996 15.4286H19.75C20.3823 15.4286 20.8983 15.7158 21.1291 16.1487C21.5722 16.9784 22.0485 18.0986 22.1481 19.1769C22.1925 19.6561 21.9774 20.0521 21.6266 20.2552C20.3094 21.0146 17.3178 22.2858 12 22.2858C6.68223 22.2858 3.6906 21.0146 2.37339 20.2552C2.02262 20.0521 1.80755 19.6561 1.85185 19.1769C1.95155 18.0986 2.42782 16.9784 2.87089 16.1487Z" fill="white"/>
</svg>
