<svg width="40" height="40" viewBox="0 0 40 40" fill="none" xmlns="http://www.w3.org/2000/svg">
<path d="M40 0H0V40H40V0Z" fill="white"/>
<path d="M19.2 22.2125C18.915 21.975 18.75 21.625 18.75 21.25V10C18.75 9.3125 19.31 8.75 20 8.75C20.69 8.75 21.25 9.3125 21.25 10V20.6625L28.3 26.5375C28.83 26.9875 28.9025 27.775 28.46 28.3C28.0188 28.825 27.23 28.9 26.7 28.4625L19.2 22.2125Z" fill="#282828"/>
<path fill-rule="evenodd" clip-rule="evenodd" d="M20 2.5C10.335 2.5 2.5 10.3375 2.5 20C2.5 29.6625 10.335 37.5 20 37.5C29.665 37.5 37.5 29.6625 37.5 20C37.5 10.3375 29.665 2.5 20 2.5ZM5 20C5 11.7125 11.7163 5 20 5C28.2838 5 35 11.7125 35 20C35 28.2875 28.2838 35 20 35C11.7163 35 5 28.2875 5 20Z" fill="#282828"/>
</svg>
