<svg width="24" height="24" viewBox="0 0 24 24" fill="none" xmlns="http://www.w3.org/2000/svg">
<path fill-rule="evenodd" clip-rule="evenodd" d="M8.84828 1.37674C10.5454 -0.458915 13.4546 -0.458915 15.1517 1.37674L22.866 9.72049C23.5954 10.5089 24 11.5425 24 12.6145V21.4374C24 22.8528 22.8489 24 21.4286 24H2.57143C1.15114 24 0 22.8528 0 21.4374V12.6145C0 11.5425 0.40457 10.5089 1.134 9.72049L8.84828 1.37674ZM9.42857 22.2916H14.5714V14.6039H9.42857V22.2916ZM7.71429 22.2916H2.57143C2.09829 22.2916 1.71429 21.9089 1.71429 21.4374V12.6145C1.71429 11.9713 1.95686 11.3511 2.39486 10.8779L10.1091 2.53416C11.1274 1.4331 12.8726 1.4331 13.8909 2.53416L21.6051 10.8779C22.0431 11.3511 22.2857 11.9713 22.2857 12.6145V21.4374C22.2857 21.9089 21.9017 22.2916 21.4286 22.2916H16.2857V14.6039C16.2857 13.66 15.5186 12.8955 14.5714 12.8955H9.42857C8.48143 12.8955 7.71429 13.66 7.71429 14.6039V22.2916Z" fill="white"/>
</svg>
