<svg width="20" height="23" viewBox="0 0 20 23" fill="none" xmlns="http://www.w3.org/2000/svg">
<path fill-rule="evenodd" clip-rule="evenodd" d="M10 0.75C10.4125 0.75 10.75 1.0875 10.75 1.5V9C10.75 9.4125 10.4125 9.75 10 9.75C9.5875 9.75 9.25 9.4125 9.25 9V1.5C9.25 1.0875 9.5875 0.75 10 0.75Z" fill="#282828"/>
<path fill-rule="evenodd" clip-rule="evenodd" d="M7.70496 4.01254C7.84746 4.40254 7.63747 4.82988 7.24747 4.97238C4.04497 6.10488 1.75 9.15747 1.75 12.75C1.75 17.31 5.44 21 10 21C14.56 21 18.25 17.31 18.25 12.75C18.25 9.15747 15.955 6.10488 12.7525 4.97238C12.3625 4.82988 12.1525 4.40254 12.295 4.01254C12.43 3.62254 12.8575 3.41996 13.2475 3.55496C17.035 4.88996 19.75 8.50497 19.75 12.75C19.75 18.135 15.385 22.5 10 22.5C4.615 22.5 0.25 18.135 0.25 12.75C0.25 8.50497 2.96503 4.88996 6.75253 3.55496C7.14253 3.41996 7.56996 3.62254 7.70496 4.01254Z" fill="#282828"/>
</svg>
