<svg width="24" height="24" viewBox="0 0 24 24" fill="none" xmlns="http://www.w3.org/2000/svg">
<path d="M11.9998 0C8.68611 0 5.99982 2.68629 5.99982 6H4.75086C3.24725 6 1.97589 7.11309 1.77717 8.60351L0.310505 19.6035C0.0707113 21.402 1.46982 23 3.28419 23H20.7155C22.5298 23 23.9289 21.402 23.6891 19.6035L22.2225 8.60351C22.0238 7.11309 20.7524 6 19.2488 6H17.9998C17.9998 2.68629 15.3135 0 11.9998 0ZM15.9998 6H7.99982C7.99982 3.79086 9.79068 2 11.9998 2C14.209 2 15.9998 3.79086 15.9998 6ZM4.75086 8H19.2488C19.75 8 20.1738 8.37103 20.24 8.86784L21.7067 19.8678C21.7866 20.4673 21.3202 21 20.7155 21H3.28419C2.6794 21 2.21303 20.4673 2.29296 19.8678L3.75963 8.86784C3.82587 8.37103 4.24965 8 4.75086 8Z" fill="#282828"/>
</svg>
