<svg width="22" height="22" viewBox="0 0 22 22" fill="none" xmlns="http://www.w3.org/2000/svg">
<path fill-rule="evenodd" clip-rule="evenodd" d="M8.006 3.31026C8.1035 1.74201 9.407 0.5 11 0.5C12.593 0.5 13.8965 1.74201 13.994 3.31026C14.1043 3.35301 14.213 3.398 14.3203 3.44525C15.4985 2.40575 17.2978 2.44851 18.425 3.57576C19.5515 4.70226 19.5942 6.5015 18.5547 7.67975C18.602 7.787 18.647 7.89575 18.6897 8.006C20.258 8.1035 21.5 9.407 21.5 11C21.5 12.593 20.258 13.8965 18.6897 13.994C18.647 14.1043 18.602 14.213 18.5547 14.3203C19.5942 15.4985 19.5515 17.2977 18.4242 18.4242C17.2977 19.5515 15.4985 19.5942 14.3203 18.5547C14.213 18.602 14.1043 18.647 13.994 18.6897C13.8965 20.258 12.593 21.5 11 21.5C9.407 21.5 8.1035 20.258 8.006 18.6897C7.89575 18.647 7.787 18.602 7.67975 18.5547C6.5015 19.5942 4.70226 19.5515 3.57576 18.4242C2.44851 17.2977 2.40575 15.4985 3.44525 14.3203C3.398 14.213 3.35301 14.1043 3.31026 13.994C1.74201 13.8965 0.5 12.593 0.5 11C0.5 9.407 1.74201 8.1035 3.31026 8.006C3.35301 7.89575 3.398 7.787 3.44525 7.67975C2.40575 6.5015 2.44851 4.70226 3.57576 3.57576C4.70226 2.44851 6.5015 2.40575 7.67975 3.44525C7.787 3.398 7.89575 3.35301 8.006 3.31026ZM4.63626 6.75726C5.01726 7.13901 5.08702 7.70298 4.87627 8.15523C4.79677 8.32773 4.724 8.50323 4.658 8.68248C4.487 9.15123 4.03925 9.5 3.5 9.5C2.67125 9.5 2 10.1713 2 11C2 11.8287 2.67125 12.5 3.5 12.5C4.03925 12.5 4.487 12.8488 4.658 13.3175C4.724 13.4968 4.79677 13.6723 4.87627 13.8448C5.08702 14.297 5.01726 14.861 4.63626 15.2427C4.05051 15.8285 4.05051 16.778 4.63626 17.3637C5.22201 17.9495 6.17151 17.9495 6.75726 17.3637C7.13901 16.9827 7.70298 16.913 8.15523 17.1237C8.32773 17.2032 8.50323 17.276 8.68248 17.342C9.15123 17.513 9.5 17.9608 9.5 18.5C9.5 19.3288 10.1713 20 11 20C11.8287 20 12.5 19.3288 12.5 18.5C12.5 17.9608 12.8488 17.513 13.3175 17.342C13.4968 17.276 13.673 17.2032 13.8448 17.1237C14.297 16.913 14.861 16.9827 15.2427 17.3637C15.8285 17.9495 16.778 17.9495 17.3637 17.3637C17.9495 16.778 17.9495 15.8285 17.3637 15.2427C16.9827 14.861 16.913 14.297 17.1237 13.8448C17.2032 13.6723 17.276 13.4968 17.342 13.3175C17.513 12.8488 17.9608 12.5 18.5 12.5C19.3288 12.5 20 11.8287 20 11C20 10.1713 19.3288 9.5 18.5 9.5C17.9608 9.5 17.513 9.15123 17.342 8.68248C17.276 8.50323 17.2032 8.32773 17.1237 8.15523C16.913 7.70298 16.9827 7.13901 17.3637 6.75726C17.9495 6.17151 17.9495 5.22201 17.3637 4.63626C16.778 4.05051 15.8285 4.05051 15.2427 4.63626C14.861 5.01726 14.297 5.08702 13.8448 4.87627C13.673 4.79677 13.4968 4.724 13.3175 4.658C12.8488 4.487 12.5 4.03925 12.5 3.5C12.5 2.67125 11.8287 2 11 2C10.1713 2 9.5 2.67125 9.5 3.5C9.5 4.03925 9.15123 4.487 8.68248 4.658C8.50323 4.724 8.32698 4.79677 8.15523 4.87627C7.70298 5.08702 7.13901 5.01726 6.75726 4.63626C6.17151 4.05051 5.22201 4.05051 4.63626 4.63626C4.05051 5.22201 4.05051 6.17151 4.63626 6.75726Z" fill="#282828"/>
<path fill-rule="evenodd" clip-rule="evenodd" d="M11 8C9.34325 8 8 9.34325 8 11C8 12.6568 9.34325 14 11 14C12.6568 14 14 12.6568 14 11C14 9.34325 12.6568 8 11 8ZM6.5 11C6.5 8.5145 8.5145 6.5 11 6.5C13.4855 6.5 15.5 8.5145 15.5 11C15.5 13.4855 13.4855 15.5 11 15.5C8.5145 15.5 6.5 13.4855 6.5 11Z" fill="#282828"/>
</svg>
