<svg width="35" height="24" viewBox="0 0 35 24" fill="none" xmlns="http://www.w3.org/2000/svg">
<path d="M25.23 12C27.6312 12 29.5626 10.08 29.5626 7.71429C29.5626 5.34857 27.6312 3.42857 25.23 3.42857C22.8288 3.42857 20.88 5.34857 20.88 7.71429C20.88 10.08 22.8288 12 25.23 12ZM12.18 10.2857C15.0597 10.2857 17.3826 7.98 17.3826 5.14286C17.3826 2.30571 15.0597 0 12.18 0C9.3003 0 6.96 2.30571 6.96 5.14286C6.96 7.98 9.3003 10.2857 12.18 10.2857ZM25.23 15.4286C22.0371 15.4286 15.66 17.0057 15.66 20.1429V24H34.8V20.1429C34.8 17.0057 28.4229 15.4286 25.23 15.4286ZM12.18 13.7143C8.1171 13.7143 0 15.72 0 19.7143V24H12.18V20.1429C12.18 18.6857 12.7629 16.14 16.3038 14.1943C14.79 13.8771 13.3197 13.7143 12.18 13.7143Z" fill="#282828"/>
</svg>
