<svg width="24" height="24" viewBox="0 0 24 24" fill="none" xmlns="http://www.w3.org/2000/svg">
<path fill-rule="evenodd" clip-rule="evenodd" d="M16.2257 7.71547L13.7658 1.15878C13.6029 0.713097 13.8256 0.224632 14.2713 0.0532162C14.7171 -0.109629 15.2057 0.113183 15.3771 0.558864L17.9485 7.41551C17.9828 7.50979 18 7.61262 18 7.71547H21.42C21.42 7.71547 21.4286 7.71547 21.4372 7.71547H23.1429C23.6143 7.71547 24 8.10115 24 8.57255C24 9.04394 23.6143 9.42963 23.1429 9.42963H22.2085L21.1371 20.1431C20.9228 22.3287 19.08 24 16.8771 24H7.12291C4.92005 24 3.07722 22.3287 2.86293 20.1431L1.7915 9.42963H0.857143C0.385714 9.42963 0 9.04394 0 8.57255C0 8.10115 0.385714 7.71547 0.857143 7.71547H6C6 7.61262 6.01719 7.50979 6.05148 7.41551L8.62291 0.558864C8.79434 0.113183 9.28294 -0.109629 9.72865 0.0532162C10.1744 0.224632 10.3971 0.713097 10.2342 1.15878L7.77434 7.71547H16.2257ZM4.56864 19.9718L3.51437 9.42963H20.4856L19.4314 19.9718C19.3028 21.2831 18.1971 22.2858 16.8771 22.2858H7.12291C5.80291 22.2858 4.69721 21.2831 4.56864 19.9718Z" fill="white"/>
</svg>
