<svg width="24" height="24" viewBox="0 0 24 24" fill="none" xmlns="http://www.w3.org/2000/svg">
<path fill-rule="evenodd" clip-rule="evenodd" d="M20.9816 3.35556C19.0912 1.25156 16.0256 1.25156 14.1352 3.35556L12.5664 5.10041C12.416 5.26752 12.212 5.36088 12 5.36088C11.788 5.36088 11.584 5.26752 11.4344 5.10041L9.8648 3.35556C7.9744 1.25156 4.90881 1.25156 3.01842 3.35556C1.12722 5.45867 1.12722 8.87022 3.01842 10.9742C3.02562 10.9822 3.03363 10.9911 3.04083 10.9991L12 21.8L20.9592 10.9991C20.9664 10.9911 20.9744 10.9822 20.9816 10.9742C22.8728 8.87022 22.8728 5.45867 20.9816 3.35556ZM13.0032 2.09867C15.5184 -0.699556 19.5976 -0.699556 22.1136 2.09867C24.6248 4.89245 24.6288 9.41867 22.1256 12.2169L12.588 23.7138C12.4368 23.896 12.2232 24 12 24C11.7768 24 11.5632 23.896 11.412 23.7138L1.87442 12.2169C-0.628776 9.41867 -0.624813 4.89245 1.88638 2.09867C4.40238 -0.699556 8.48158 -0.699556 10.9968 2.09867L12 3.21423L13.0032 2.09867Z" fill="white"/>
</svg>
